<svg id="logo" width="793" height="467" viewBox="0 0 793 467" fill="none" xmlns="http://www.w3.org/2000/svg">
<path d="M790.478 49.0635L790.5 48.9V48.7351V5V2.5H788H694.627H692.127V5V54.4397V56.9397H694.627H767.801L712.637 461.662L712.25 464.5H715.114H733.237H735.428L735.715 462.328L790.478 49.0635Z" stroke="#FFF9F9" stroke-width="5"/>
<path d="M712.381 91.7627L713.426 88.5H710H677.073H675.21L674.678 90.2851L621 270.153L567.322 90.2851L566.79 88.5H564.927H532H528.569L529.62 91.7657L603.83 322.402V462V464.5H606.33H635.996H638.496V462V322.401L712.381 91.7627Z" stroke="#FFF9F9" stroke-width="5"/>
<path d="M506.5 91V88.5H504H382H379.5V91V130.389V132.889H382H428.869V462V464.5H431.369H454.89H457.39V462V132.889H504H506.5V130.389V91Z" stroke="#FFF9F9" stroke-width="5"/>
<path d="M284.762 326.138L325.627 462.717L326.161 464.5H328.023H354.741H358.1L357.135 461.282L301.839 276.767L357.394 91.7189L358.361 88.5H355H328.541H326.655L326.137 90.3134L286.979 227.415L245.853 90.2819L245.319 88.5H243.459H217H213.644L214.605 91.7158L269.902 276.767L214.864 461.285L213.905 464.5H217.259H243.459H245.346L245.863 462.685L284.762 326.138Z" stroke="#FFF9F9" stroke-width="5"/>
<path d="M178.5 91V88.5H176H147H144.5V91V462V464.5H147H176H178.5V462V91Z" stroke="#FFF9F9" stroke-width="5"/>
<path d="M29.5761 450.394L29.5999 450.422L29.6245 450.449C37.9859 459.685 47.6242 464.5 58.4799 464.5C69.9023 464.5 79.6564 458.822 87.7019 448.064C95.6557 437.428 101.579 423.673 105.553 406.906C109.522 390.163 111.5 372.33 111.5 353.415C111.5 329.058 109.318 309.666 104.857 295.356C100.462 280.896 95.1062 270.02 88.6498 263.004C82.3887 255.84 74.175 248.737 64.0567 241.684C55.8646 235.863 49.5296 230.814 45.0091 226.53C40.8428 222.088 37.1629 215.651 34.0523 207.066C31.1317 198.608 29.6226 187.527 29.6226 173.727C29.6226 154.417 32.2228 139.792 37.2065 129.63L37.2138 129.615L37.2209 129.6C42.2563 118.979 48.334 114.493 55.2135 114.493C62.7055 114.493 69.133 119.204 74.2927 130.146L74.2995 130.161L74.3065 130.175C79.5034 140.841 82.4904 153.36 83.2028 167.787L83.3202 170.163H85.6998H107.476H110.075L109.974 167.566C108.805 137.602 103.613 113.325 94.2473 94.8832C85.0244 76.4371 72.7236 66.5 57.1734 66.5C46.4442 66.5 37.0128 71.3328 28.9407 80.5851L28.933 80.5939L28.9253 80.6029C21.0457 89.8082 15.0333 102.694 10.7667 119.08C6.49163 135.498 4.37104 154.273 4.37104 175.38C4.37104 199.379 6.48234 218.754 10.7874 233.409L10.7933 233.429L10.7994 233.448C15.2013 247.562 20.4891 258.243 26.7886 265.243L26.7986 265.254L26.8088 265.265C33.0773 272.065 41.3003 278.803 51.4277 285.491C59.4742 290.948 65.7937 295.991 70.4335 300.617C74.8652 305.036 78.6941 311.639 81.8141 320.613C84.8819 329.437 86.4662 341.073 86.4662 355.62C86.4662 374.137 83.7376 389.185 78.4173 400.881C73.2755 412.138 66.5728 417.058 58.4799 417.058C54.1013 417.058 50.3011 415.729 46.9799 413.062C43.6225 410.365 40.6445 406.209 38.139 400.403C33.2026 388.254 30.338 373.315 29.6206 355.519L29.5239 353.12H27.1226H6H3.48261L3.50006 355.637C3.6464 376.751 5.98779 395.535 10.5598 411.961L10.5619 411.968L10.5639 411.975C15.1291 428.004 21.4358 440.855 29.5761 450.394Z" stroke="#FFF9F9" stroke-width="5"/>
</svg>




